<svg width="815" height="570" viewBox="0 0 815 570" fill="none" xmlns="http://www.w3.org/2000/svg">
<g opacity="0.6">
<path d="M814.975 0.922852H620.204V560.29H814.975V0.922852Z" fill="#C3F8C7"/>
<path d="M504.716 0.732422H309.635V556.487H504.716V0.732422Z" fill="#C3F8C7"/>
<path d="M0 569.274V350.259C82.2774 350.143 161.15 313.267 219.292 247.73C277.435 182.194 310.093 93.3569 310.093 0.732422L504.864 0.732422C504.761 151.451 451.543 295.967 356.889 402.558C262.236 509.15 133.882 569.109 0 569.274V569.274Z" fill="#9EF0A5"/>
<path d="M310.08 569.274V350.259C392.367 350.159 471.254 313.291 529.408 247.752C587.563 182.214 620.228 93.3677 620.228 0.732422L815 0.732422C814.882 151.457 761.651 295.972 666.989 402.562C572.327 509.152 443.967 569.109 310.08 569.274Z" fill="#9EF0A5"/>
</g>
</svg>
