<svg width="54" height="47" viewBox="0 0 54 47" fill="none" xmlns="http://www.w3.org/2000/svg">
<path fill-rule="evenodd" clip-rule="evenodd" d="M40.4469 27.4207L39.9266 31.5415L32.7158 30.6311L33.234 26.5271C31.8387 25.8916 30.6017 24.972 29.5238 23.7676L25.6599 25.4334L22.7256 18.8951L26.6074 17.232C26.5651 16.8244 26.5481 16.4033 26.5558 15.9679C26.566 15.7047 26.5814 15.4422 26.6026 15.1811C26.6212 15.0339 26.6404 14.8818 26.6605 14.7229C26.7703 13.8529 26.9627 13.0267 27.2369 12.2457L23.8882 9.68708L28.3555 4.08298L31.7191 6.66159C33.0481 5.78409 34.4619 5.20471 35.9617 4.92291L36.4798 0.818952L43.6906 1.72936L43.1725 5.83333C43.9465 6.19551 44.6748 6.64379 45.3569 7.1774C45.5588 7.34068 45.7603 7.50949 45.9604 7.68438C46.2646 7.96428 46.5612 8.25992 46.8501 8.57199L50.7661 6.91248L53.7003 13.4511L49.8014 15.1127C49.8744 15.9258 49.8558 16.7676 49.7459 17.6376C49.6374 18.4973 49.447 19.3111 49.1741 20.0812L52.5377 22.6591L48.0705 28.2629L44.7069 25.6846C43.3765 26.5731 41.9567 27.152 40.4469 27.4207ZM39.2469 21.4807C39.9772 21.3544 40.6621 21.079 41.3012 20.6544C41.4033 20.5873 41.4999 20.5195 41.5906 20.4502C42.5104 19.7507 43.1305 18.8755 43.4505 17.8247C43.548 17.5162 43.6174 17.1971 43.6588 16.869C43.6773 16.7224 43.6896 16.5806 43.6951 16.4435C43.7079 16.2496 43.7092 16.0542 43.6988 15.858C43.6944 15.8004 43.6907 15.7366 43.6878 15.6673C43.6031 14.6684 43.2222 13.742 42.5456 12.8869C42.4749 12.7972 42.3982 12.7075 42.316 12.6171C41.7924 12.0339 41.1926 11.59 40.5166 11.2868C40.0178 11.0631 39.4742 10.9137 38.8864 10.8395C38.8054 10.8293 38.7191 10.8184 38.6269 10.8068C38.1399 10.7682 37.6629 10.7887 37.1962 10.8676C36.4545 10.9918 35.7573 11.2719 35.1052 11.7067C35.0145 11.7753 34.9239 11.8439 34.8332 11.9131C34.4576 12.1984 34.1307 12.5134 33.853 12.8576C33.4517 13.3463 33.1592 13.901 32.9752 14.5208C32.8779 14.8307 32.8075 15.1545 32.7647 15.4936C32.7218 15.8333 32.7046 16.1582 32.7119 16.4689C32.7722 17.5677 33.1609 18.5702 33.8783 19.4764C33.9489 19.5661 34.0204 19.6489 34.0925 19.7276C34.1026 19.74 34.1128 19.7524 34.1228 19.7655C34.2973 19.9601 34.4744 20.137 34.6528 20.298C35.0353 20.6101 35.4424 20.8626 35.8748 21.055C36.3836 21.2918 36.9378 21.4474 37.5375 21.5231C38.1369 21.5988 38.7068 21.5851 39.2469 21.4807Z" fill="url(#paint0_linear_717_12328)"/>
<path d="M16.8277 10.2349L16.8275 10.235C16.916 10.3802 16.9956 10.5298 17.066 10.6832C17.1185 10.7913 17.1671 10.9039 17.2123 11.0207C17.3151 11.2867 17.3936 11.5584 17.4464 11.8348C17.6362 12.7787 17.519 13.7112 17.1076 14.6179C17.0658 14.7104 17.0197 14.8024 16.9703 14.894C16.6592 15.4769 16.2498 15.9707 15.7428 16.3698C15.3679 16.6756 14.9376 16.9194 14.4576 17.105C13.9769 17.2909 13.4914 17.4011 13.0019 17.4305C12.5904 17.4614 12.176 17.4356 11.7595 17.3556L11.7473 17.3533L11.7351 17.3503C11.5368 17.3018 11.3337 17.2411 11.126 17.1665L11.1081 17.16L11.0907 17.1522L11.081 17.1481C10.9982 17.119 10.9123 17.0861 10.8233 17.0475C9.90931 16.6538 9.19215 16.0451 8.68924 15.2237L8.68514 15.217L8.68124 15.2102C8.54857 14.9774 8.43014 14.7263 8.32595 14.4568C8.22036 14.1838 8.14089 13.9091 8.08734 13.6323C7.97229 13.0792 7.96684 12.527 8.07342 11.9799C8.14423 11.6009 8.26413 11.2273 8.43096 10.8603M16.8277 10.2349L14.2607 8.78963M16.8277 10.2349L16.8212 10.2248C16.8006 10.1929 16.7777 10.1556 16.7523 10.113L16.7469 10.104L16.7412 10.0953C16.2567 9.3543 15.5746 8.80075 14.7154 8.43042M16.8277 10.2349L14.5171 8.88941M8.43096 10.8603C8.43105 10.8601 8.43114 10.8599 8.43124 10.8597L8.88639 11.0667L8.43068 10.8609C8.43077 10.8607 8.43087 10.8605 8.43096 10.8603ZM8.43096 10.8603C8.46786 10.7786 8.50489 10.6975 8.54139 10.6176L8.54761 10.604L8.55462 10.5908C8.87158 9.99398 9.28964 9.4901 9.80889 9.0866M9.80889 9.0866L10.1162 9.48091L9.8095 9.08612C9.8093 9.08628 9.80909 9.08644 9.80889 9.0866ZM9.80889 9.0866C10.1321 8.83472 10.4862 8.62392 10.8698 8.45459L10.8805 8.44988L10.8914 8.44567L10.8918 8.44552L10.8922 8.44536L10.8926 8.44521L10.893 8.44506L10.8934 8.44491L10.8938 8.44476L10.8942 8.4446L10.8946 8.44445L10.895 8.4443L10.8953 8.44415L10.8957 8.44399L10.8961 8.44384L10.8965 8.44369L10.8969 8.44354L10.8973 8.44339L10.8977 8.44323L10.8981 8.44308L10.8985 8.44293L10.8989 8.44278L10.8993 8.44263L10.8997 8.44247L10.9001 8.44232L10.9005 8.44217L10.9008 8.44202L10.9012 8.44187L10.9016 8.44172L10.902 8.44157L10.9024 8.44141L10.9028 8.44126L10.9032 8.44111L10.9036 8.44096L10.904 8.44081L10.9044 8.44066L10.9048 8.44051L10.9052 8.44035L10.9055 8.4402L10.9059 8.44005L10.9063 8.4399L10.9067 8.43975L10.9071 8.4396L10.9075 8.43945L10.9079 8.4393L10.9083 8.43915L10.9087 8.439L10.9091 8.43884L10.9094 8.43869L10.9098 8.43854L10.9102 8.43839L10.9106 8.43824L10.911 8.43809L10.9114 8.43794L10.9118 8.43779L10.9122 8.43764L10.9126 8.43749L10.913 8.43734L10.9133 8.43719L10.9137 8.43704L10.9141 8.43689L10.9145 8.43674L10.9149 8.43659L10.9153 8.43644L10.9157 8.43629L10.9161 8.43614L10.9164 8.43599L10.9168 8.43584L10.9172 8.43569L10.9176 8.43554L10.918 8.43539L10.9184 8.43524L10.9188 8.43509L10.9192 8.43494L10.9196 8.43479L10.9199 8.43464L10.9203 8.43449L10.9207 8.43434L10.9211 8.43419L10.9215 8.43404L10.9219 8.43389L10.9223 8.43374L10.9226 8.43359L10.923 8.43344L10.9234 8.43329L10.9238 8.43314L10.9242 8.43299L10.9246 8.43284L10.925 8.43269L10.9254 8.43254L10.9257 8.43239L10.9261 8.43225L10.9265 8.4321L10.9269 8.43195L10.9273 8.4318L10.9277 8.43165L10.9281 8.4315L10.9284 8.43135L10.9288 8.4312L10.9292 8.43105L10.9296 8.4309L10.93 8.43076L10.9304 8.43061L10.9307 8.43046L10.9311 8.43031L10.9315 8.43016L10.9319 8.43001L10.9323 8.42986L10.9327 8.42971L10.9331 8.42957L10.9334 8.42942L10.9338 8.42927L10.9342 8.42912L10.9346 8.42897L10.935 8.42882L10.9354 8.42868L10.9357 8.42853L10.9361 8.42838L10.9365 8.42823L10.9369 8.42808L10.9373 8.42794L10.9377 8.42779L10.938 8.42764L10.9384 8.42749L10.9388 8.42734L10.9392 8.4272L10.9396 8.42705L10.9399 8.4269L10.9403 8.42675L10.9407 8.4266L10.9411 8.42646L10.9415 8.42631L10.9419 8.42616L10.9422 8.42601L10.9426 8.42587L10.943 8.42572L10.9434 8.42557L10.9438 8.42542L10.9441 8.42528L10.9445 8.42513L10.9449 8.42498L10.9453 8.42483L10.9457 8.42469L10.9461 8.42454L10.9464 8.42439L10.9468 8.42425L10.9472 8.4241L10.9476 8.42395L10.948 8.4238L10.9483 8.42366L10.9487 8.42351L10.9491 8.42336L10.9495 8.42322L10.9499 8.42307L10.9502 8.42292L10.9506 8.42278L10.951 8.42263L10.9514 8.42248L10.9517 8.42234L10.9521 8.42219L10.9525 8.42204L10.9529 8.4219L10.9533 8.42175L10.9536 8.4216L10.954 8.42146L10.9544 8.42131L10.9548 8.42116L10.9552 8.42102L10.9555 8.42087L10.9559 8.42072L10.9563 8.42058L10.9567 8.42043L10.9571 8.42029L10.9574 8.42014L10.9578 8.41999L10.9582 8.41985L10.9586 8.4197L10.9589 8.41956L10.9593 8.41941L10.9597 8.41926L10.9601 8.41912L10.9604 8.41897L10.9608 8.41883L10.9612 8.41868L10.9616 8.41854L10.962 8.41839L10.9623 8.41824L10.9627 8.4181L10.9631 8.41795L10.9635 8.41781L10.9638 8.41766L10.9642 8.41752L10.9646 8.41737L10.965 8.41723L10.9653 8.41708L10.9657 8.41693L10.9661 8.41679L10.9665 8.41664L10.9668 8.4165L10.9672 8.41635L10.9676 8.41621L10.968 8.41606L10.9683 8.41592L10.9687 8.41577L10.9691 8.41563L10.9695 8.41548L10.9698 8.41534L10.9702 8.41519L10.9706 8.41505L10.971 8.4149L10.9713 8.41476L10.9717 8.41461L10.9721 8.41447L10.9725 8.41433L10.9728 8.41418L10.9732 8.41404L10.9736 8.41389L10.974 8.41375L10.9743 8.4136L10.9747 8.41346L10.9751 8.41331L10.9755 8.41317L10.9758 8.41303L10.9762 8.41288L10.9766 8.41274L10.9769 8.41259L10.9773 8.41245L10.9777 8.4123L10.9781 8.41216L10.9784 8.41202L10.9788 8.41187L10.9792 8.41173L10.9796 8.41158L10.9799 8.41144L10.9803 8.4113L10.9807 8.41115L10.981 8.41101L10.9814 8.41086L10.9818 8.41072L10.9822 8.41058L10.9825 8.41043L10.9829 8.41029L10.9833 8.41015L10.9836 8.41L10.984 8.40986L10.9844 8.40972L10.9848 8.40957L10.9851 8.40943L10.9855 8.40929L10.9859 8.40914L10.9862 8.409L10.9866 8.40886L10.987 8.40871L10.9874 8.40857L10.9877 8.40843L10.9881 8.40828L10.9885 8.40814L10.9888 8.408L10.9892 8.40785L10.9896 8.40771L10.9899 8.40757L10.9903 8.40742L10.9907 8.40728L10.9911 8.40714L10.9914 8.407L10.9918 8.40685L10.9922 8.40671L10.9925 8.40657L10.9929 8.40643L10.9933 8.40628L10.9936 8.40614L10.994 8.406L10.9944 8.40586L10.9947 8.40571L10.9951 8.40557L10.9955 8.40543L10.9958 8.40529L10.9962 8.40514L10.9966 8.405L10.9969 8.40486L10.9973 8.40472L10.9977 8.40457L10.9981 8.40443L10.9984 8.40429L10.9988 8.40415L10.9992 8.40401L10.9995 8.40386L10.9999 8.40372L11.0003 8.40358L11.0006 8.40344L11.001 8.4033L11.0014 8.40315L11.0017 8.40301L11.0021 8.40287L11.0025 8.40273L11.0028 8.40259L11.0032 8.40245L11.0036 8.4023L11.0039 8.40216L11.0043 8.40202L11.0047 8.40188L11.005 8.40174L11.0054 8.4016L11.0058 8.40146L11.0061 8.40131L11.0065 8.40117L11.0068 8.40103L11.0072 8.40089L11.0076 8.40075L11.0079 8.40061L11.0083 8.40047L11.0087 8.40033L11.009 8.40018L11.0094 8.40004L11.0098 8.3999L11.0101 8.39976L11.0105 8.39962L11.0109 8.39948L11.0112 8.39934L11.0116 8.3992L11.012 8.39906L11.0123 8.39892L11.0127 8.39878L11.013 8.39863L11.0134 8.39849L11.0138 8.39835L11.0141 8.39821L11.0145 8.39807L11.0149 8.39793L11.0152 8.39779L11.0156 8.39765L11.016 8.39751L11.0163 8.39737L11.0167 8.39723L11.017 8.39709L11.0174 8.39695L11.0178 8.39681L11.0181 8.39667L11.0185 8.39653L11.0189 8.39639L11.0192 8.39625L11.0196 8.39611L11.0199 8.39597L11.0203 8.39583L11.0207 8.39569L11.021 8.39555L11.0214 8.39541L11.0217 8.39527L11.0221 8.39513L11.0225 8.39499L11.0228 8.39485L11.0232 8.39471L11.0236 8.39457L11.0239 8.39443L11.0243 8.39429L11.0246 8.39415L11.025 8.39401L11.0254 8.39387L11.0257 8.39373L11.0261 8.39359L11.0264 8.39345L11.0268 8.39331L11.0272 8.39318L11.0275 8.39304L11.0279 8.3929L11.0282 8.39276L11.0286 8.39262L11.029 8.39248L11.0293 8.39234L11.0297 8.3922L11.03 8.39206L11.0304 8.39192L11.0308 8.39178L11.0311 8.39165L11.0315 8.39151L11.0318 8.39137L11.0322 8.39123L11.0326 8.39109L11.0329 8.39095L11.0333 8.39081L11.0336 8.39067L11.034 8.39054L11.0343 8.3904L11.0347 8.39026L11.0351 8.39012L11.0354 8.38998L11.0358 8.38984L11.0361 8.3897L11.0365 8.38957L11.0369 8.38943L11.0372 8.38929L11.0376 8.38915L11.0379 8.38901L11.0383 8.38887L11.0386 8.38874L11.039 8.3886L11.0394 8.38846L11.0397 8.38832L11.0401 8.38818L11.0404 8.38805L11.0408 8.38791L11.0411 8.38777L11.0415 8.38763L11.0419 8.38749L11.0422 8.38736L11.0426 8.38722L11.0429 8.38708L11.0433 8.38694L11.0436 8.3868L11.044 8.38667L11.0443 8.38653L11.0447 8.38639L11.0451 8.38625L11.0454 8.38612L11.0458 8.38598L11.0461 8.38584L11.0465 8.3857L11.0468 8.38557L11.0472 8.38543L11.0475 8.38529L11.0479 8.38516L11.0483 8.38502L11.0486 8.38488L11.049 8.38474L11.0493 8.38461L11.0497 8.38447L11.05 8.38433L11.0504 8.3842L11.0507 8.38406L11.0511 8.38392L11.0514 8.38378L11.0518 8.38365L11.0522 8.38351L11.0525 8.38337L11.0529 8.38324L11.0532 8.3831L11.0536 8.38296L11.0539 8.38283L11.0543 8.38269L11.0546 8.38255L11.055 8.38242L11.0553 8.38228L11.0557 8.38214L11.056 8.38201L11.0564 8.38187L11.0568 8.38173L11.0571 8.3816L11.0575 8.38146L11.0578 8.38133L11.0582 8.38119L11.0585 8.38105L11.0589 8.38092L11.0592 8.38078L11.0596 8.38064L11.0599 8.38051L11.0603 8.38037L11.0606 8.38024L11.061 8.3801L11.0613 8.37996L11.0617 8.37983L11.062 8.37969L11.0624 8.37956L11.0627 8.37942L11.0631 8.37928L11.0634 8.37915L11.0638 8.37901L11.0641 8.37888L11.0645 8.37874L11.0648 8.37861L11.0652 8.37847L11.0655 8.37834L11.0659 8.3782L11.0662 8.37806L11.0666 8.37793L11.0669 8.37779L11.0673 8.37766L11.0676 8.37752L11.068 8.37739L11.0683 8.37725L11.0687 8.37712L11.069 8.37698L11.0694 8.37685L11.0697 8.37671L11.0701 8.37658L11.0704 8.37644L11.0708 8.37631L11.0711 8.37617L11.0715 8.37604L11.0718 8.3759L11.0722 8.37577L11.0725 8.37563L11.0729 8.3755L11.0732 8.37536L11.0736 8.37523L11.0739 8.37509L11.0743 8.37496L11.0746 8.37482L11.075 8.37469L11.0753 8.37455L11.0757 8.37442L11.076 8.37428L11.0764 8.37415L11.0767 8.37402L11.0771 8.37388L11.0774 8.37375L11.0778 8.37361L11.0781 8.37348L11.0785 8.37334L11.0788 8.37321L11.0791 8.37307L11.0795 8.37294L11.0798 8.37281L11.0802 8.37267L11.0805 8.37254L11.0809 8.3724C11.5525 8.19004 12.0275 8.07972 12.504 8.04494M12.504 8.04494C12.504 8.04494 12.5039 8.04495 12.5039 8.04495L12.5403 8.54248L12.504 8.04494ZM12.504 8.04494C13.1512 7.99763 13.7941 8.09113 14.428 8.31846M14.428 8.31846C14.4275 8.31828 14.427 8.3181 14.4265 8.31792L14.2607 8.78963M14.428 8.31846C14.4286 8.31865 14.4291 8.31884 14.4296 8.31903L14.2607 8.78963M14.428 8.31846C14.5262 8.353 14.6222 8.39006 14.7154 8.43042M14.2607 8.78963C14.3503 8.82111 14.4357 8.85417 14.5171 8.88941M14.7154 8.43042C14.7152 8.43035 14.7151 8.43029 14.7149 8.43022L14.5171 8.88941M14.7154 8.43042C14.7155 8.43048 14.7157 8.43054 14.7158 8.43061L14.5171 8.88941M18.1291 19.2059L17.8408 19.4346L17.9735 19.7779L18.9565 22.32L14.6247 23.995L13.6465 21.4651L13.5137 21.1219L13.1465 21.1466C12.0312 21.2216 10.9157 21.0602 9.79656 20.6565L9.45801 20.5344L9.23474 20.8166L7.51318 22.9931L3.89183 20.215L5.61571 18.0455L5.84471 17.7573L5.63755 17.453C5.47144 17.2091 5.31554 16.9465 5.1697 16.6646C5.08502 16.4917 5.00405 16.318 4.92737 16.1436L4.92727 16.1433L4.92702 16.1427L4.92678 16.142L4.92653 16.1414L4.92629 16.1408L4.92605 16.1401L4.9258 16.1395L4.92556 16.1389L4.92531 16.1382L4.92507 16.1376L4.92482 16.137L4.92458 16.1363L4.92433 16.1357L4.92409 16.1351L4.92385 16.1344L4.9236 16.1338L4.92336 16.1332L4.92311 16.1326L4.92287 16.1319L4.92262 16.1313L4.92238 16.1307L4.92213 16.13L4.92189 16.1294L4.92164 16.1288L4.9214 16.1281L4.92115 16.1275L4.92091 16.1269L4.92066 16.1262L4.92042 16.1256L4.92017 16.125L4.91993 16.1243L4.91968 16.1237L4.91944 16.123L4.91919 16.1224L4.91895 16.1218L4.9187 16.1211L4.91846 16.1205L4.91821 16.1199L4.91797 16.1192L4.91772 16.1186L4.91748 16.118L4.91723 16.1173L4.91698 16.1167L4.91674 16.1161L4.91649 16.1154L4.91625 16.1148L4.916 16.1142L4.91576 16.1135L4.91551 16.1129L4.91527 16.1123L4.91502 16.1116L4.91477 16.111L4.91453 16.1104L4.91428 16.1097L4.91404 16.1091L4.91379 16.1084L4.91354 16.1078L4.9133 16.1072L4.91305 16.1065L4.91281 16.1059L4.91256 16.1053L4.91231 16.1046L4.91207 16.104L4.91182 16.1034L4.91158 16.1027L4.91133 16.1021L4.91108 16.1014L4.91084 16.1008L4.91059 16.1002L4.91034 16.0995L4.9101 16.0989L4.90985 16.0983L4.9096 16.0976L4.90936 16.097L4.90911 16.0963L4.90886 16.0957L4.90862 16.0951L4.90837 16.0944L4.90813 16.0938L4.90788 16.0932L4.90763 16.0925L4.90738 16.0919L4.90714 16.0912L4.90689 16.0906L4.90664 16.09L4.9064 16.0893L4.90615 16.0887L4.9059 16.088L4.90566 16.0874L4.90541 16.0868L4.90516 16.0861L4.90492 16.0855L4.90467 16.0849L4.90442 16.0842L4.90417 16.0836L4.90393 16.0829L4.90368 16.0823L4.90343 16.0817L4.90318 16.081L4.90294 16.0804L4.90269 16.0797L4.90244 16.0791L4.9022 16.0785L4.90195 16.0778L4.9017 16.0772L4.90145 16.0765L4.9012 16.0759L4.90096 16.0753L4.90071 16.0746L4.90046 16.074L4.90021 16.0733L4.89997 16.0727L4.89972 16.0721L4.89947 16.0714L4.89922 16.0708L4.89897 16.0701L4.89873 16.0695L4.89848 16.0688L4.89823 16.0682L4.89798 16.0676L4.89773 16.0669L4.89749 16.0663L4.89724 16.0656L4.89699 16.065L4.89674 16.0644L4.89649 16.0637L4.89625 16.0631L4.896 16.0624L4.89575 16.0618L4.8955 16.0611L4.89525 16.0605L4.895 16.0599L4.89475 16.0592L4.89451 16.0586L4.89426 16.0579L4.89401 16.0573L4.89376 16.0566L4.89351 16.056L4.89326 16.0554L4.89301 16.0547L4.89277 16.0541L4.89252 16.0534L4.89227 16.0528L4.89202 16.0521L4.89177 16.0515L4.89152 16.0509L4.89127 16.0502L4.89102 16.0496L4.89077 16.0489L4.89053 16.0483L4.89028 16.0476L4.89003 16.047L4.88978 16.0463L4.88953 16.0457L4.88928 16.0451L4.88903 16.0444L4.88878 16.0438L4.88853 16.0431L4.88828 16.0425L4.88803 16.0418L4.88778 16.0412L4.88753 16.0405L4.88728 16.0399L4.88703 16.0392L4.88678 16.0386L4.88653 16.038L4.88628 16.0373L4.88604 16.0367L4.88579 16.036L4.88554 16.0354L4.88529 16.0347L4.88504 16.0341L4.88479 16.0334L4.88454 16.0328L4.88429 16.0321L4.88404 16.0315L4.88379 16.0308L4.88354 16.0302L4.88329 16.0296L4.88304 16.0289L4.88279 16.0283L4.88253 16.0276L4.88228 16.027L4.88203 16.0263L4.88178 16.0257L4.88153 16.025L4.88128 16.0244L4.88103 16.0237L4.88078 16.0231L4.88053 16.0224L4.88028 16.0218L4.88003 16.0211L4.87978 16.0205L4.87953 16.0198L4.87928 16.0192L4.87903 16.0185L4.87878 16.0179L4.87853 16.0172L4.87828 16.0166L4.87802 16.0159L4.87777 16.0153L4.87752 16.0147L4.87727 16.014L4.87702 16.0134L4.87677 16.0127L4.87652 16.0121L4.87627 16.0114L4.87602 16.0108L4.87576 16.0101L4.87551 16.0095L4.87526 16.0088L4.87501 16.0082L4.87476 16.0075L4.87451 16.0069L4.87426 16.0062L4.87401 16.0056L4.87375 16.0049L4.8735 16.0043L4.87325 16.0036L4.873 16.003L4.87275 16.0023L4.8725 16.0016L4.87224 16.001L4.87199 16.0003L4.87174 15.9997L4.87149 15.999L4.87124 15.9984L4.87098 15.9977L4.87073 15.9971L4.87048 15.9964L4.87023 15.9958L4.86998 15.9951L4.86972 15.9945L4.86947 15.9938L4.86922 15.9932L4.86897 15.9925L4.86872 15.9919L4.86846 15.9912L4.86821 15.9906L4.86796 15.9899L4.86771 15.9893L4.86745 15.9886L4.8672 15.988L4.86695 15.9873L4.8667 15.9867L4.86644 15.986L4.86619 15.9853L4.86594 15.9847L4.86569 15.984L4.86543 15.9834L4.86518 15.9827L4.86493 15.9821L4.86467 15.9814L4.86442 15.9808L4.86417 15.9801L4.86391 15.9795L4.86366 15.9788L4.86341 15.9782L4.86316 15.9775L4.8629 15.9768L4.86265 15.9762L4.8624 15.9755L4.86214 15.9749L4.86189 15.9742L4.86164 15.9736L4.86138 15.9729L4.86113 15.9723L4.86088 15.9716L4.86062 15.9709L4.86037 15.9703L4.86012 15.9696L4.85986 15.969L4.85961 15.9683L4.85935 15.9677L4.8591 15.967L4.85885 15.9664L4.85859 15.9657L4.85834 15.965L4.85809 15.9644L4.85783 15.9637L4.85758 15.9631L4.85732 15.9624L4.85707 15.9618L4.85682 15.9611L4.85656 15.9604L4.85631 15.9598L4.85605 15.9591L4.8558 15.9585L4.85554 15.9578L4.85529 15.9572L4.85504 15.9565L4.85478 15.9558L4.85453 15.9552L4.85427 15.9545L4.85402 15.9539L4.85376 15.9532L4.85351 15.9525L4.85325 15.9519L4.853 15.9512L4.85275 15.9506L4.85249 15.9499L4.85224 15.9493L4.85198 15.9486L4.85173 15.9479L4.85147 15.9473L4.85122 15.9466L4.85096 15.946L4.85071 15.9453L4.85045 15.9446L4.8502 15.944L4.84994 15.9433L4.84969 15.9427L4.84943 15.942L4.84918 15.9413L4.84892 15.9407L4.84866 15.94L4.84841 15.9394L4.84815 15.9387L4.8479 15.938L4.84764 15.9374L4.84739 15.9367L4.84713 15.9361L4.84688 15.9354L4.84662 15.9347L4.84637 15.9341L4.84611 15.9334L4.84585 15.9328L4.8456 15.9321L4.84534 15.9314L4.84509 15.9308L4.84483 15.9301L4.84457 15.9294L4.84432 15.9288L4.84406 15.9281L4.84381 15.9275L4.84355 15.9268L4.84329 15.9261L4.84304 15.9255L4.84278 15.9248L4.84253 15.9241L4.84227 15.9235L4.84201 15.9228L4.84176 15.9222L4.8415 15.9215L4.84124 15.9208L4.84099 15.9202L4.84073 15.9195L4.84047 15.9188L4.84022 15.9182L4.83996 15.9175L4.8397 15.9168L4.83945 15.9162L4.83919 15.9155L4.83893 15.9149L4.83868 15.9142L4.83842 15.9135L4.83816 15.9129L4.83791 15.9122L4.83765 15.9115L4.83739 15.9109L4.83713 15.9102L4.83688 15.9095L4.83662 15.9089L4.83636 15.9082L4.83611 15.9075L4.83585 15.9069L4.83559 15.9062L4.83533 15.9055L4.83508 15.9049L4.83482 15.9042L4.83456 15.9035L4.8343 15.9029L4.83405 15.9022L4.83379 15.9015L4.83353 15.9009L4.83327 15.9002L4.83301 15.8995L4.83276 15.8989L4.8325 15.8982L4.83224 15.8975L4.83198 15.8969L4.83173 15.8962L4.83147 15.8955L4.83121 15.8949L4.83095 15.8942L4.83069 15.8935L4.83043 15.8929L4.83018 15.8922L4.82992 15.8915L4.82966 15.8909L4.8294 15.8902L4.82914 15.8895L4.82888 15.8889L4.82863 15.8882L4.82837 15.8875L4.82811 15.8869L4.82785 15.8862L4.82759 15.8855L4.82733 15.8849L4.82707 15.8842L4.82682 15.8835L4.82656 15.8828L4.8263 15.8822L4.82604 15.8815L4.82578 15.8808L4.82552 15.8802L4.82526 15.8795L4.825 15.8788L4.82474 15.8782L4.82448 15.8775L4.82423 15.8768L4.82397 15.8761L4.82371 15.8755L4.82345 15.8748L4.82319 15.8741L4.82293 15.8735L4.82267 15.8728L4.82241 15.8721L4.82215 15.8715L4.82189 15.8708L4.82163 15.8701L4.82137 15.8694L4.82111 15.8688L4.82085 15.8681L4.82059 15.8674L4.82033 15.8667L4.82007 15.8661L4.81981 15.8654L4.81955 15.8647L4.81929 15.8641L4.81903 15.8634L4.81877 15.8627L4.81851 15.862L4.81825 15.8614L4.81799 15.8607L4.81773 15.86L4.81747 15.8594L4.81721 15.8587L4.81695 15.858L4.81669 15.8573L4.81643 15.8567L4.81617 15.856L4.81591 15.8553L4.81565 15.8546L4.81539 15.854L4.81513 15.8533L4.81487 15.8526L4.81461 15.8519L4.81434 15.8513L4.81408 15.8506L4.81382 15.8499L4.81356 15.8492L4.8133 15.8486L4.81304 15.8479L4.81278 15.8472L4.81252 15.8465L4.81226 15.8459L4.812 15.8452L4.81173 15.8445L4.81147 15.8438L4.81121 15.8432L4.81095 15.8425L4.81069 15.8418L4.81043 15.8411L4.81017 15.8405L4.8099 15.8398L4.80964 15.8391L4.80938 15.8384L4.80912 15.8378L4.80886 15.8371L4.8086 15.8364L4.80833 15.8357L4.80807 15.835L4.80781 15.8344L4.80755 15.8337L4.80729 15.833L4.80702 15.8323L4.80676 15.8317L4.8065 15.831L4.80624 15.8303L4.80598 15.8296L4.80571 15.8289L4.80545 15.8283L4.80519 15.8276L4.80493 15.8269L4.80466 15.8262L4.8044 15.8256L4.80414 15.8249L4.80388 15.8242L4.80361 15.8235L4.80335 15.8228L4.80309 15.8222L4.80283 15.8215L4.80256 15.8208L4.8023 15.8201L4.80204 15.8194C4.56846 15.2154 4.40504 14.614 4.31046 14.0159L4.25375 13.6573L3.89521 13.6003L1.16713 13.1659L1.97734 8.67369L4.7426 9.11853L5.09413 9.17508L5.26254 8.86137C5.81747 7.82768 6.52832 6.96303 7.39562 6.26126L7.67886 6.03207L7.54746 5.69224L6.56921 3.16235L10.901 1.48735L11.8792 4.01724L12.0106 4.3568L12.374 4.3361C12.997 4.30062 13.621 4.33608 14.2459 4.44261C14.4351 4.47816 14.6254 4.51727 14.8164 4.56066C15.1124 4.63615 15.4093 4.72456 15.7072 4.82641L16.0395 4.94005L16.2591 4.66591L18.0181 2.47019L21.6412 5.24984L19.9064 7.42451L19.6797 7.70874L19.8802 8.01205C20.2085 8.50875 20.49 9.05871 20.7237 9.66293C20.9542 10.2592 21.1143 10.851 21.2058 11.4404L21.2616 11.7997L21.6205 11.8574L24.3668 12.2988L23.5564 16.7915L20.7912 16.3469L20.4377 16.2901L20.27 16.6064C19.719 17.6459 19.0056 18.5105 18.1291 19.2059Z" stroke="black"/>
<path d="M25.9859 34.256L25.9858 34.2561C26.0563 34.3885 26.1188 34.5243 26.173 34.6629C26.2138 34.7608 26.2508 34.8624 26.2845 34.9672C26.3614 35.2065 26.4167 35.4497 26.4492 35.6959C26.5684 36.5379 26.4172 37.3541 26.0091 38.1308C25.9675 38.2104 25.9222 38.289 25.8742 38.3669C25.5709 38.8639 25.1852 39.2781 24.7182 39.604C24.3719 39.8546 23.9805 40.0472 23.5494 40.1859C23.1176 40.3248 22.6847 40.3973 22.2517 40.3982C21.8876 40.4045 21.524 40.3606 21.1619 40.2691L21.1498 40.266L21.1378 40.2624C20.9661 40.2098 20.7909 40.1462 20.6125 40.0701L20.595 40.0627L20.5781 40.0539L20.5732 40.0515C20.5022 40.0218 20.4286 39.9885 20.3524 39.9502C19.5683 39.5573 18.9669 38.9843 18.5654 38.2346L18.5617 38.2277L18.5582 38.2206C18.4533 38.009 18.3621 37.7824 18.2843 37.5407C18.2054 37.2953 18.1494 37.0497 18.1163 36.8032C18.0431 36.3098 18.0664 35.8222 18.1884 35.3448C18.2701 35.0145 18.3947 34.6918 18.5599 34.3778C18.5961 34.3087 18.6323 34.2402 18.6679 34.1727L18.6749 34.1595L18.6827 34.1467C18.992 33.6376 19.3862 33.2147 19.8647 32.8853C20.1619 32.6803 20.484 32.5129 20.8297 32.3836L20.8407 32.3796L20.8518 32.376L20.8521 32.3759L20.8525 32.3758L20.8528 32.3756L20.8532 32.3755L20.8535 32.3754L20.8539 32.3753L20.8542 32.3752L20.8546 32.3751L20.8549 32.375L20.8553 32.3749L20.8556 32.3747L20.856 32.3746L20.8563 32.3745L20.8567 32.3744L20.857 32.3743L20.8573 32.3742L20.8577 32.3741L20.858 32.374L20.8584 32.3738L20.8587 32.3737L20.8591 32.3736L20.8594 32.3735L20.8598 32.3734L20.8601 32.3733L20.8605 32.3732L20.8608 32.3731L20.8612 32.373L20.8615 32.3728L20.8619 32.3727L20.8622 32.3726L20.8626 32.3725L20.8629 32.3724L20.8633 32.3723L20.8636 32.3722L20.8639 32.3721L20.8643 32.3719L20.8646 32.3718L20.865 32.3717L20.8653 32.3716L20.8657 32.3715L20.866 32.3714L20.8664 32.3713L20.8667 32.3712L20.8671 32.3711L20.8674 32.3709L20.8678 32.3708L20.8681 32.3707L20.8684 32.3706L20.8688 32.3705L20.8691 32.3704L20.8695 32.3703L20.8698 32.3702L20.8702 32.3701L20.8705 32.3699L20.8709 32.3698L20.8712 32.3697L20.8715 32.3696L20.8719 32.3695L20.8722 32.3694L20.8726 32.3693L20.8729 32.3692L20.8733 32.3691L20.8736 32.369L20.874 32.3688L20.8743 32.3687L20.8746 32.3686L20.875 32.3685L20.8753 32.3684L20.8757 32.3683L20.876 32.3682L20.8764 32.3681L20.8767 32.368L20.8771 32.3678L20.8774 32.3677L20.8777 32.3676L20.8781 32.3675L20.8784 32.3674L20.8788 32.3673L20.8791 32.3672L20.8795 32.3671L20.8798 32.367L20.8801 32.3669L20.8805 32.3667L20.8808 32.3666L20.8812 32.3665L20.8815 32.3664L20.8818 32.3663L20.8822 32.3662L20.8825 32.3661L20.8829 32.366L20.8832 32.3659L20.8836 32.3658L20.8839 32.3656L20.8842 32.3655L20.8846 32.3654L20.8849 32.3653L20.8853 32.3652L20.8856 32.3651L20.8859 32.365L20.8863 32.3649L20.8866 32.3648L20.887 32.3647L20.8873 32.3645L20.8876 32.3644L20.888 32.3643L20.8883 32.3642L20.8887 32.3641L20.889 32.364L20.8894 32.3639L20.8897 32.3638L20.89 32.3637L20.8904 32.3636L20.8907 32.3635L20.8911 32.3633L20.8914 32.3632L20.8917 32.3631L20.8921 32.363L20.8924 32.3629L20.8927 32.3628L20.8931 32.3627L20.8934 32.3626L20.8938 32.3625L20.8941 32.3624L20.8944 32.3623L20.8948 32.3621L20.8951 32.362L20.8955 32.3619L20.8958 32.3618L20.8961 32.3617L20.8965 32.3616L20.8968 32.3615L20.8972 32.3614L20.8975 32.3613L20.8978 32.3612L20.8982 32.3611L20.8985 32.3609L20.8988 32.3608L20.8992 32.3607L20.8995 32.3606L20.8999 32.3605L20.9002 32.3604L20.9005 32.3603L20.9009 32.3602L20.9012 32.3601L20.9015 32.36L20.9019 32.3599L20.9022 32.3598L20.9026 32.3596L20.9029 32.3595L20.9032 32.3594L20.9036 32.3593L20.9039 32.3592L20.9042 32.3591L20.9046 32.359L20.9049 32.3589L20.9052 32.3588L20.9056 32.3587L20.9059 32.3586L20.9062 32.3585L20.9066 32.3583L20.9069 32.3582L20.9073 32.3581L20.9076 32.358L20.9079 32.3579L20.9083 32.3578L20.9086 32.3577L20.9089 32.3576L20.9093 32.3575L20.9096 32.3574L20.9099 32.3573L20.9103 32.3572L20.9106 32.3571L20.9109 32.3569L20.9113 32.3568L20.9116 32.3567L20.9119 32.3566L20.9123 32.3565L20.9126 32.3564L20.9129 32.3563L20.9133 32.3562L20.9136 32.3561L20.914 32.356L20.9143 32.3559L20.9146 32.3558L20.915 32.3557L20.9153 32.3555L20.9156 32.3554L20.916 32.3553L20.9163 32.3552L20.9166 32.3551L20.917 32.355L20.9173 32.3549L20.9176 32.3548L20.918 32.3547L20.9183 32.3546L20.9186 32.3545L20.919 32.3544L20.9193 32.3543L20.9196 32.3542L20.9199 32.354L20.9203 32.3539L20.9206 32.3538L20.9209 32.3537L20.9213 32.3536L20.9216 32.3535L20.9219 32.3534L20.9223 32.3533L20.9226 32.3532L20.9229 32.3531L20.9233 32.353L20.9236 32.3529L20.9239 32.3528L20.9243 32.3527L20.9246 32.3526L20.9249 32.3524L20.9253 32.3523L20.9256 32.3522L20.9259 32.3521L20.9262 32.352L20.9266 32.3519L20.9269 32.3518L20.9272 32.3517L20.9276 32.3516L20.9279 32.3515L20.9282 32.3514L20.9286 32.3513L20.9289 32.3512L20.9292 32.3511L20.9296 32.351L20.9299 32.3509L20.9302 32.3507L20.9305 32.3506L20.9309 32.3505L20.9312 32.3504L20.9315 32.3503L20.9319 32.3502L20.9322 32.3501L20.9325 32.35L20.9328 32.3499L20.9332 32.3498L20.9335 32.3497L20.9338 32.3496L20.9342 32.3495L20.9345 32.3494L20.9348 32.3493L20.9351 32.3492L20.9355 32.3491L20.9358 32.3489L20.9361 32.3488L20.9365 32.3487L20.9368 32.3486L20.9371 32.3485L20.9374 32.3484L20.9378 32.3483L20.9381 32.3482L20.9384 32.3481L20.9388 32.348L20.9391 32.3479L20.9394 32.3478L20.9397 32.3477L20.9401 32.3476L20.9404 32.3475L20.9407 32.3474L20.9411 32.3473L20.9414 32.3472L20.9417 32.347L20.942 32.3469L20.9424 32.3468L20.9427 32.3467L20.943 32.3466L20.9433 32.3465L20.9437 32.3464L20.944 32.3463L20.9443 32.3462L20.9446 32.3461L20.945 32.346L20.9453 32.3459L20.9456 32.3458L20.9459 32.3457L20.9463 32.3456L20.9466 32.3455L20.9469 32.3454L20.9472 32.3453L20.9476 32.3452L20.9479 32.3451L20.9482 32.345L20.9486 32.3448L20.9489 32.3447L20.9492 32.3446L20.9495 32.3445L20.9499 32.3444L20.9502 32.3443L20.9505 32.3442L20.9508 32.3441L20.9511 32.344L20.9515 32.3439L20.9518 32.3438L20.9521 32.3437L20.9524 32.3436L20.9528 32.3435L20.9531 32.3434L20.9534 32.3433L20.9537 32.3432L20.9541 32.3431L20.9544 32.343L20.9547 32.3429L20.955 32.3428L20.9554 32.3427L20.9557 32.3426L20.956 32.3424L20.9563 32.3423L20.9567 32.3422L20.957 32.3421L20.9573 32.342L20.9576 32.3419L20.9579 32.3418L20.9583 32.3417L20.9586 32.3416L20.9589 32.3415L20.9592 32.3414L20.9596 32.3413L20.9599 32.3412L20.9602 32.3411L20.9605 32.341L20.9608 32.3409L20.9612 32.3408L20.9615 32.3407L20.9618 32.3406L20.9621 32.3405L20.9625 32.3404L20.9628 32.3403L20.9631 32.3402L20.9634 32.3401L20.9637 32.34L20.9641 32.3399L20.9644 32.3398L20.9647 32.3396L20.965 32.3395L20.9653 32.3394L20.9657 32.3393L20.966 32.3392L20.9663 32.3391L20.9666 32.339L20.967 32.3389L20.9673 32.3388L20.9676 32.3387L20.9679 32.3386L20.9682 32.3385L20.9686 32.3384L20.9689 32.3383L20.9692 32.3382L20.9695 32.3381L20.9698 32.338L20.9702 32.3379L20.9705 32.3378L20.9708 32.3377L20.9711 32.3376L20.9714 32.3375L20.9718 32.3374L20.9721 32.3373L20.9724 32.3372L20.9727 32.3371L20.973 32.337L20.9733 32.3369L20.9737 32.3368L20.974 32.3367L20.9743 32.3366L20.9746 32.3365L20.9749 32.3364L20.9753 32.3363L20.9756 32.3362L20.9759 32.336L20.9762 32.3359L20.9765 32.3358L20.9768 32.3357L20.9772 32.3356L20.9775 32.3355L20.9778 32.3354L20.9781 32.3353L20.9784 32.3352L20.9788 32.3351L20.9791 32.335L20.9794 32.3349L20.9797 32.3348L20.98 32.3347L20.9803 32.3346L20.9807 32.3345L20.981 32.3344L20.9813 32.3343L20.9816 32.3342L20.9819 32.3341L20.9822 32.334L20.9826 32.3339L20.9829 32.3338L20.9832 32.3337L20.9835 32.3336L20.9838 32.3335L20.9841 32.3334L20.9845 32.3333L20.9848 32.3332L20.9851 32.3331L20.9854 32.333L20.9857 32.3329L20.986 32.3328L20.9864 32.3327L20.9867 32.3326L20.987 32.3325L20.9873 32.3324L20.9876 32.3323L20.9879 32.3322L20.9882 32.3321L20.9886 32.332L20.9889 32.3319L20.9892 32.3318L20.9895 32.3317L20.9898 32.3316L20.9901 32.3315L20.9905 32.3314L20.9908 32.3313L20.9911 32.3312L20.9914 32.3311L20.9917 32.331L20.992 32.3309L20.9923 32.3308L20.9927 32.3307L20.993 32.3306L20.9933 32.3305L20.9936 32.3304L20.9939 32.3303L20.9942 32.3302L20.9945 32.3301L20.9948 32.33L20.9952 32.3299L20.9955 32.3298L20.9958 32.3297L20.9961 32.3295L20.9964 32.3294L20.9967 32.3293L20.997 32.3292L20.9974 32.3291L20.9977 32.329L20.998 32.3289L20.9983 32.3288L20.9986 32.3287L20.9989 32.3286L20.9992 32.3285L20.9995 32.3284L20.9999 32.3283L21.0002 32.3282L21.0005 32.3281L21.0008 32.328L21.0011 32.3279L21.0014 32.3278L21.0017 32.3277L21.002 32.3276L21.0023 32.3275L21.0027 32.3274L21.003 32.3273L21.0033 32.3272L21.0036 32.3271L21.0039 32.327L21.0042 32.3269L21.0045 32.3268L21.0048 32.3267L21.0051 32.3266L21.0055 32.3265L21.0058 32.3264L21.0061 32.3263L21.0064 32.3262L21.0067 32.3261L21.007 32.326L21.0073 32.3259L21.0076 32.3258L21.0079 32.3257L21.0083 32.3256L21.0086 32.3255L21.0089 32.3254L21.0092 32.3253L21.0095 32.3252L21.0098 32.3251L21.0101 32.325L21.0104 32.3249L21.0107 32.3248L21.011 32.3247L21.0114 32.3246L21.0117 32.3245L21.012 32.3244L21.0123 32.3243L21.0126 32.3242L21.0129 32.3241L21.0132 32.324L21.0135 32.3239L21.0138 32.3238L21.0141 32.3237L21.0144 32.3237L21.0147 32.3236L21.0151 32.3235L21.0154 32.3234L21.0157 32.3233L21.016 32.3232L21.0163 32.3231L21.0166 32.323L21.0169 32.3229L21.0172 32.3228L21.0175 32.3227L21.0178 32.3226L21.0181 32.3225L21.0184 32.3224L21.0187 32.3223L21.0191 32.3222L21.0194 32.3221L21.0197 32.322C21.4433 32.1857 21.867 32.1127 22.2887 32.1063L25.9859 34.256ZM25.9859 34.256L25.98 34.2456M25.9859 34.256L25.98 34.2456M25.98 34.2456C25.9643 34.2177 25.9466 34.1849 25.927 34.1472L25.9221 34.1379M25.98 34.2456L25.9221 34.1379M25.9221 34.1379L25.9169 34.1289M25.9221 34.1379L25.9169 34.1289M25.9169 34.1289C25.5271 33.4501 24.9535 32.9275 24.2169 32.5582M25.9169 34.1289L24.2169 32.5582M24.2169 32.5582C24.1366 32.5178 24.054 32.4803 23.9696 32.445C23.4235 32.2128 22.8619 32.0975 22.2888 32.1063L24.2169 32.5582ZM26.5684 42.0742L26.2674 42.286L26.3801 42.6363L27.0846 44.8264L23.3714 46.0208L22.6704 43.8417L22.5577 43.4913L22.1897 43.4948C21.2287 43.5039 20.2789 43.3101 19.337 42.9074L19.0061 42.766L18.7669 43.0349L17.2088 44.7867L14.3089 42.2834L15.8672 40.5393L16.1124 40.2648L15.9232 39.9491C15.793 39.7319 15.6723 39.4991 15.5611 39.2499C15.497 39.0973 15.4361 38.9442 15.379 38.7907L15.3788 38.7902L15.3786 38.7897L15.3784 38.7891L15.3783 38.7885L15.3781 38.788L15.3779 38.7874L15.3777 38.7869L15.3775 38.7863L15.3774 38.7857L15.3772 38.7852L15.377 38.7846L15.3768 38.7841L15.3766 38.7835L15.3764 38.7829L15.3763 38.7824L15.3761 38.7818L15.3759 38.7813L15.3757 38.7807L15.3755 38.7801L15.3754 38.7796L15.3752 38.779L15.375 38.7784L15.3748 38.7779L15.3746 38.7773L15.3745 38.7768L15.3743 38.7762L15.3741 38.7756L15.3739 38.7751L15.3737 38.7745L15.3736 38.774L15.3734 38.7734L15.3732 38.7728L15.373 38.7723L15.3728 38.7717L15.3727 38.7711L15.3725 38.7706L15.3723 38.77L15.3721 38.7695L15.3719 38.7689L15.3718 38.7683L15.3716 38.7678L15.3714 38.7672L15.3712 38.7666L15.371 38.7661L15.3708 38.7655L15.3707 38.765L15.3705 38.7644L15.3703 38.7638L15.3701 38.7633L15.3699 38.7627L15.3698 38.7621L15.3696 38.7616L15.3694 38.761L15.3692 38.7604L15.369 38.7599L15.3689 38.7593L15.3687 38.7588L15.3685 38.7582L15.3683 38.7576L15.3681 38.7571L15.3679 38.7565L15.3678 38.7559L15.3676 38.7554L15.3674 38.7548L15.3672 38.7542L15.367 38.7537L15.3669 38.7531L15.3667 38.7526L15.3665 38.752L15.3663 38.7514L15.3661 38.7509L15.3659 38.7503L15.3658 38.7497L15.3656 38.7492L15.3654 38.7486L15.3652 38.748L15.365 38.7475L15.3649 38.7469L15.3647 38.7463L15.3645 38.7458L15.3643 38.7452L15.3641 38.7446L15.3639 38.7441L15.3638 38.7435L15.3636 38.7429L15.3634 38.7424L15.3632 38.7418L15.363 38.7412L15.3629 38.7407L15.3627 38.7401L15.3625 38.7395L15.3623 38.739L15.3621 38.7384L15.3619 38.7378L15.3618 38.7373L15.3616 38.7367L15.3614 38.7361L15.3612 38.7356L15.361 38.735L15.3608 38.7344L15.3607 38.7339L15.3605 38.7333L15.3603 38.7327L15.3601 38.7322L15.3599 38.7316L15.3598 38.731L15.3596 38.7305L15.3594 38.7299L15.3592 38.7293L15.359 38.7288L15.3588 38.7282L15.3587 38.7276L15.3585 38.7271L15.3583 38.7265L15.3581 38.7259L15.3579 38.7254L15.3577 38.7248L15.3576 38.7242L15.3574 38.7236L15.3572 38.7231L15.357 38.7225L15.3568 38.7219L15.3566 38.7214L15.3565 38.7208L15.3563 38.7202L15.3561 38.7197L15.3559 38.7191L15.3557 38.7185L15.3555 38.718L15.3554 38.7174L15.3552 38.7168L15.355 38.7162L15.3548 38.7157L15.3546 38.7151L15.3544 38.7145L15.3543 38.714L15.3541 38.7134L15.3539 38.7128L15.3537 38.7123L15.3535 38.7117L15.3533 38.7111L15.3532 38.7105L15.353 38.71L15.3528 38.7094L15.3526 38.7088L15.3524 38.7083L15.3522 38.7077L15.3521 38.7071L15.3519 38.7066L15.3517 38.706L15.3515 38.7054L15.3513 38.7048L15.3511 38.7043L15.351 38.7037L15.3508 38.7031L15.3506 38.7026L15.3504 38.702L15.3502 38.7014L15.35 38.7008L15.3499 38.7003L15.3497 38.6997L15.3495 38.6991L15.3493 38.6986L15.3491 38.698L15.3489 38.6974L15.3488 38.6968L15.3486 38.6963L15.3484 38.6957L15.3482 38.6951L15.348 38.6945L15.3478 38.694L15.3476 38.6934L15.3475 38.6928L15.3473 38.6923L15.3471 38.6917L15.3469 38.6911L15.3467 38.6905L15.3465 38.69L15.3464 38.6894L15.3462 38.6888L15.346 38.6882L15.3458 38.6877L15.3456 38.6871L15.3454 38.6865L15.3452 38.6859L15.3451 38.6854L15.3449 38.6848L15.3447 38.6842L15.3445 38.6836L15.3443 38.6831L15.3441 38.6825L15.344 38.6819L15.3438 38.6813L15.3436 38.6808L15.3434 38.6802L15.3432 38.6796L15.343 38.679L15.3428 38.6785L15.3427 38.6779L15.3425 38.6773L15.3423 38.6767L15.3421 38.6762L15.3419 38.6756L15.3417 38.675L15.3416 38.6744L15.3414 38.6739L15.3412 38.6733L15.341 38.6727L15.3408 38.6721L15.3406 38.6716L15.3404 38.671L15.3403 38.6704L15.3401 38.6698L15.3399 38.6693L15.3397 38.6687L15.3395 38.6681L15.3393 38.6675L15.3391 38.667L15.339 38.6664L15.3388 38.6658L15.3386 38.6652L15.3384 38.6646L15.3382 38.6641L15.338 38.6635L15.3378 38.6629L15.3377 38.6623L15.3375 38.6618L15.3373 38.6612L15.3371 38.6606L15.3369 38.66L15.3367 38.6594L15.3365 38.6589L15.3364 38.6583L15.3362 38.6577L15.336 38.6571L15.3358 38.6566L15.3356 38.656L15.3354 38.6554L15.3352 38.6548L15.3351 38.6542L15.3349 38.6537L15.3347 38.6531L15.3345 38.6525L15.3343 38.6519L15.3341 38.6513L15.3339 38.6508L15.3337 38.6502L15.3336 38.6496L15.3334 38.649L15.3332 38.6485L15.333 38.6479L15.3328 38.6473L15.3326 38.6467L15.3324 38.6461L15.3323 38.6456L15.3321 38.645L15.3319 38.6444L15.3317 38.6438L15.3315 38.6432L15.3313 38.6427L15.3311 38.6421L15.3309 38.6415L15.3308 38.6409L15.3306 38.6403L15.3304 38.6397L15.3302 38.6392L15.33 38.6386L15.3298 38.638L15.3296 38.6374L15.3295 38.6368L15.3293 38.6363L15.3291 38.6357L15.3289 38.6351L15.3287 38.6345L15.3285 38.6339L15.3283 38.6334L15.3281 38.6328L15.328 38.6322L15.3278 38.6316L15.3276 38.631L15.3274 38.6304L15.3272 38.6299L15.327 38.6293L15.3268 38.6287L15.3266 38.6281L15.3265 38.6275L15.3263 38.6269L15.3261 38.6264L15.3259 38.6258L15.3257 38.6252L15.3255 38.6246L15.3253 38.624L15.3251 38.6234L15.325 38.6229L15.3248 38.6223L15.3246 38.6217L15.3244 38.6211L15.3242 38.6205L15.324 38.6199L15.3238 38.6194L15.3236 38.6188L15.3235 38.6182L15.3233 38.6176L15.3231 38.617L15.3229 38.6164L15.3227 38.6159L15.3225 38.6153L15.3223 38.6147L15.3221 38.6141L15.322 38.6135L15.3218 38.6129L15.3216 38.6123L15.3214 38.6118L15.3212 38.6112L15.321 38.6106L15.3208 38.61L15.3206 38.6094L15.3204 38.6088L15.3203 38.6083L15.3201 38.6077L15.3199 38.6071L15.3197 38.6065L15.3195 38.6059L15.3193 38.6053L15.3191 38.6047L15.3189 38.6041L15.3187 38.6036L15.3186 38.603L15.3184 38.6024L15.3182 38.6018L15.318 38.6012L15.3178 38.6006L15.3176 38.6L15.3174 38.5995L15.3172 38.5989L15.317 38.5983L15.3169 38.5977L15.3167 38.5971L15.3165 38.5965L15.3163 38.5959L15.3161 38.5953L15.3159 38.5948L15.3157 38.5942L15.3155 38.5936L15.3153 38.593L15.3152 38.5924L15.315 38.5918L15.3148 38.5912L15.3146 38.5906L15.3144 38.59L15.3142 38.5895L15.314 38.5889L15.3138 38.5883L15.3136 38.5877L15.3135 38.5871L15.3133 38.5865L15.3131 38.5859L15.3129 38.5853L15.3127 38.5847L15.3125 38.5842L15.3123 38.5836L15.3121 38.583L15.3119 38.5824L15.3117 38.5818L15.3116 38.5812L15.3114 38.5806L15.3112 38.58L15.311 38.5794L15.3108 38.5788L15.3106 38.5783L15.3104 38.5777L15.3102 38.5771L15.31 38.5765L15.3098 38.5759L15.3097 38.5753L15.3095 38.5747L15.3093 38.5741L15.3091 38.5735L15.3089 38.5729L15.3087 38.5723L15.3085 38.5718L15.3083 38.5712L15.3081 38.5706L15.3079 38.57L15.3078 38.5694L15.3076 38.5688L15.3074 38.5682L15.3072 38.5676L15.307 38.567L15.3068 38.5664L15.3066 38.5658L15.3064 38.5652L15.3062 38.5647L15.306 38.5641L15.3059 38.5635L15.3057 38.5629L15.3055 38.5623L15.3053 38.5617L15.3051 38.5611L15.3049 38.5605L15.3047 38.5599L15.3045 38.5593L15.3043 38.5587L15.3041 38.5581L15.3039 38.5575L15.3038 38.5569L15.3036 38.5563L15.3034 38.5558L15.3032 38.5552L15.303 38.5546L15.3028 38.554L15.3026 38.5534L15.3024 38.5528L15.3022 38.5522L15.302 38.5516L15.3018 38.551L15.3016 38.5504L15.3015 38.5498L15.3013 38.5492L15.3011 38.5486L15.3009 38.548L15.3007 38.5474L15.3005 38.5468L15.3003 38.5462L15.3001 38.5456L15.2999 38.545L15.2997 38.5444L15.2995 38.5439L15.2994 38.5433L15.2992 38.5427L15.299 38.5421L15.2988 38.5415L15.2986 38.5409L15.2984 38.5403L15.2982 38.5397L15.298 38.5391L15.2978 38.5385L15.2976 38.5379L15.2974 38.5373L15.2972 38.5367L15.297 38.5361L15.2969 38.5355L15.2967 38.5349L15.2965 38.5343L15.2963 38.5337L15.2961 38.5331L15.2959 38.5325L15.2957 38.5319L15.2955 38.5313L15.2953 38.5307L15.2951 38.5301L15.2949 38.5295L15.2947 38.5289L15.2945 38.5283L15.2944 38.5277L15.2942 38.5271L15.294 38.5265L15.2938 38.5259L15.2936 38.5253L15.2934 38.5247L15.2932 38.5241L15.293 38.5235L15.2928 38.5229L15.2926 38.5223L15.2924 38.5217L15.2922 38.5211L15.292 38.5205L15.2918 38.5199L15.2917 38.5193L15.2915 38.5187L15.2913 38.5181L15.2911 38.5175L15.2909 38.5169L15.2907 38.5163L15.2905 38.5157L15.2903 38.5151L15.2901 38.5145L15.2899 38.5139L15.2897 38.5133L15.2895 38.5127L15.2893 38.5121L15.2891 38.5115L15.2889 38.5109L15.2888 38.5103L15.2886 38.5097L15.2884 38.5091L15.2882 38.5085L15.288 38.5079L15.2878 38.5073L15.2876 38.5067L15.2874 38.5061L15.2872 38.5055L15.287 38.5049C15.1162 37.9738 15.0057 37.4489 14.9541 36.9307L14.9182 36.5694L14.5636 36.4917L12.2863 35.993L13.1828 32.268L15.4943 32.7782L15.842 32.8549L16.0282 32.5515C16.5567 31.6904 17.2102 30.9831 17.9897 30.4236L18.2857 30.2112L18.1741 29.8643L17.4731 27.6852L21.1864 26.4907L21.8874 28.6699L21.9988 29.0164L22.3629 29.0167C22.8995 29.0172 23.4334 29.0786 23.9649 29.201C24.1259 29.2411 24.2876 29.2842 24.4497 29.3309C24.7005 29.4106 24.9514 29.5014 25.2026 29.6039L25.5279 29.7365L25.763 29.4755L27.3545 27.7083L30.256 30.2132L28.6881 31.9613L28.4454 32.2319L28.628 32.5463C28.8852 32.9889 29.0998 33.4753 29.2707 34.0066C29.4393 34.5308 29.5474 35.0471 29.5967 35.5576L29.6316 35.9195L29.9867 35.9978L32.2794 36.5036L31.3827 40.2291L29.0713 39.7191L28.7217 39.6419L28.536 39.948C28.0108 40.814 27.3552 41.5209 26.5684 42.0742Z" stroke="black"/>
<defs>
<linearGradient id="paint0_linear_717_12328" x1="53.118" y1="18.0633" x2="23.3335" y2="14.3028" gradientUnits="userSpaceOnUse">
<stop stop-color="#16FF00"/>
<stop offset="1" stop-color="#4DFFC9"/>
<stop offset="1" stop-color="#4DFFC9"/>
</linearGradient>
</defs>
</svg>
