<svg width="934" height="466" viewBox="0 0 934 466" fill="none" xmlns="http://www.w3.org/2000/svg">
<g opacity="0.2">
<path d="M0 0H241.032L331.419 139.635L241.032 465.452H0L90.3871 139.635L0 0Z" fill="#75BEE9"/>
<path d="M0 0H241.032L331.419 139.635L241.032 465.452L0 0Z" fill="#0072BC"/>
<path d="M301.29 0H542.322L632.709 139.635L542.322 465.452H301.29L391.677 139.635L301.29 0Z" fill="#75BEE9"/>
<path d="M602.581 0H843.613L934 139.635L843.613 465.452H602.581L692.968 139.635L602.581 0Z" fill="#75BEE9"/>
<path d="M301.29 0H542.322L632.709 139.635L542.322 465.452L301.29 0Z" fill="#0072BC"/>
<path d="M602.581 0H843.613L934 139.635L843.613 465.452L602.581 0Z" fill="#0072BC"/>
</g>
</svg>
