<svg width="60" height="38" viewBox="0 0 60 38" fill="none" xmlns="http://www.w3.org/2000/svg">
<path d="M0.899612 0H15.919L21.5512 11.2645L15.919 37.5484H0.899612L6.53187 11.2645L0.899612 0Z" fill="#D9D9D9"/>
<path d="M0.899612 0H15.919L21.5512 11.2645L15.919 37.5484L0.899612 0Z" fill="#ADAFB2"/>
<path d="M19.6741 0H34.6934L40.3257 11.2645L34.6934 37.5484H19.6741L25.3063 11.2645L19.6741 0Z" fill="#75BEE9"/>
<path d="M38.4485 0H53.4678L59.1001 11.2645L53.4678 37.5484H38.4485L44.0807 11.2645L38.4485 0Z" fill="#F37164"/>
<path d="M19.6741 0H34.6934L40.3257 11.2645L34.6934 37.5484L19.6741 0Z" fill="#0072BC"/>
<path d="M38.4485 0H53.4678L59.1001 11.2645L53.4678 37.5484L38.4485 0Z" fill="#ED1B35"/>
</svg>
