<svg width="70" height="70" viewBox="0 0 70 70" fill="none" xmlns="http://www.w3.org/2000/svg">
<rect x="5.77502" y="15.0642" width="56.45" height="48.3857" rx="8.06428" stroke="black"/>
<path d="M5.77502 31.1929H62.225" stroke="black"/>
<path d="M19.8875 23.1286V7" stroke="black" stroke-linecap="round"/>
<path d="M46.0964 23.1286V7" stroke="black" stroke-linecap="round"/>
<path d="M24.3949 43.9595V41.15L27.2044 38.9889H29.4736V54.1169H26.9883V42.0145L24.3949 43.9595Z" fill="#16FF00"/>
<path d="M31.6364 54.1169V51.7397L36.8016 48.0873C37.9254 47.2805 38.7322 46.5313 39.2221 45.8397C39.7119 45.1481 39.9569 44.4134 39.9569 43.6353C39.9569 42.8141 39.7047 42.1586 39.2005 41.6687C38.6962 41.1788 38.0118 40.9339 37.1474 40.9339C36.0812 40.9339 35.2816 41.3661 34.7485 42.2306C34.518 42.6052 34.3451 43.0374 34.2298 43.5273H31.6364C31.7661 42.6052 32.0471 41.7768 32.4793 41.042C33.5022 39.3851 35.0583 38.5566 37.1474 38.5566C38.7466 38.5566 40.0433 39.0321 41.0374 39.983C42.046 40.9195 42.5502 42.1009 42.5502 43.5273C42.5502 44.7663 42.2333 45.8829 41.5993 46.8771C40.9654 47.8568 39.9497 48.8293 38.5521 49.7946L36.391 51.3074L35.4184 51.7397V51.8477L36.7151 51.7397H42.5502V54.1169H31.6364Z" fill="#16FF00"/>
</svg>
