<svg width="70" height="70" viewBox="0 0 70 70" fill="none" xmlns="http://www.w3.org/2000/svg">
<rect x="6.48157" y="12.8794" width="17.5627" height="46.8339" stroke="black"/>
<rect x="24.0443" y="30.4421" width="19.0263" height="29.2712" stroke="black"/>
<path d="M10.1406 18.7336H20.3855" stroke="black"/>
<path d="M10.1406 24.5879H20.3855" stroke="black"/>
<path d="M10.1406 30.4421H20.3855" stroke="black"/>
<path d="M10.1406 36.2964H20.3855" stroke="black"/>
<path d="M28.4349 36.2964H38.6799" stroke="black"/>
<path d="M10.1406 42.1506H20.3855" stroke="black"/>
<path d="M28.4349 42.1506H38.6799" stroke="black"/>
<path d="M10.1406 48.0049H20.3855" stroke="black"/>
<path d="M28.4349 48.0049H38.6799" stroke="black"/>
<path d="M10.1406 53.8591H20.3855" stroke="black"/>
<path d="M28.4349 53.8591H38.6799" stroke="black"/>
<circle cx="57.0371" cy="16.8518" r="6.48148" fill="url(#paint0_linear_717_12472)"/>
<path d="M54.0123 16.245L56.4982 18.7309L60.5376 14.6914" stroke="black" stroke-width="1.4"/>
<circle cx="57.0371" cy="32.4075" r="5.98148" stroke="black"/>
<circle cx="57.0371" cy="47.9629" r="5.98148" stroke="black"/>
<defs>
<linearGradient id="paint0_linear_717_12472" x1="50.5556" y1="16.8518" x2="63.5065" y2="16.8518" gradientUnits="userSpaceOnUse">
<stop stop-color="#16FF00"/>
<stop offset="1" stop-color="#4DFFC9"/>
</linearGradient>
</defs>
</svg>
