<svg width="70" height="70" viewBox="0 0 70 70" fill="none" xmlns="http://www.w3.org/2000/svg">
<path fill-rule="evenodd" clip-rule="evenodd" d="M39.0155 40.6701L38.7977 39.9655L35 27.6825L31.2023 39.9655L30.9844 40.6701H30.2469H29.4547H29.0099L28.7121 40.3398L26.4938 37.88V39.6701V52.8469V53.8469H25.4938H24.7016H24.2569L23.959 53.5166L21.7407 51.0567V52.8469V68.3179H35H48.2592V52.8469V51.0567L46.041 53.5166L45.7431 53.8469H45.2983H44.5062H43.5062V52.8469V39.6701V37.88L41.2879 40.3398L40.99 40.6701H40.5452H39.7531H39.0155ZM43.5062 36.3867L43.5853 36.299L43.8902 35.9609L44.0487 35.7851C44.2097 35.6065 44.5062 35.7204 44.5062 35.9609V36.1976V36.6529V36.771V39.6701V51.8469V52.8469H45.2983L45.5062 52.6164L48.2592 49.5635L48.3384 49.4758L48.6433 49.1377L48.8018 48.9619C48.9628 48.7833 49.2592 48.8972 49.2592 49.1377V49.3744V49.8297V49.9478V52.8469V68.3179V69.3179H48.2592H35H21.7407H20.7407V68.3179V52.8469V49.9478V49.8297V49.3744V49.1377C20.7407 48.8972 21.0371 48.7833 21.1982 48.9619L21.3567 49.1377L21.6616 49.4758L21.7407 49.5635L24.4938 52.6164L24.7016 52.8469H25.4938V51.8469V39.6701V36.771V36.6529V36.1976V35.9609C25.4938 35.7204 25.7902 35.6065 25.9513 35.7851L26.1098 35.9609L26.4147 36.299L26.4938 36.3867L29.4547 39.6701H30.2469L34.4766 25.9899L34.5445 25.7705L34.6962 25.2798L34.7492 25.1083C34.8254 24.8617 35.1745 24.8617 35.2508 25.1083L35.3038 25.2798L35.4555 25.7705L35.5233 25.9899L39.7531 39.6701H40.5452L43.5062 36.3867Z" fill="black"/>
<path d="M35.7508 1.97876L39.578 9.84524L48.5984 10.8888L41.9433 16.7941L43.691 25.3056L35.7508 21.0888L27.8105 25.3056L29.5582 16.7941L22.9032 10.8888L31.9236 9.84524L35.7508 1.97876Z" fill="url(#paint0_linear_717_12567)"/>
<defs>
<linearGradient id="paint0_linear_717_12567" x1="22.242" y1="14.8735" x2="49.2345" y2="14.8735" gradientUnits="userSpaceOnUse">
<stop stop-color="#16FF00"/>
<stop offset="1" stop-color="#4DFFC9"/>
<stop offset="1" stop-color="#4DFFC9"/>
</linearGradient>
</defs>
</svg>
