<svg width="70" height="70" viewBox="0 0 70 70" fill="none" xmlns="http://www.w3.org/2000/svg">
<path d="M38.6205 25.1037C48.6546 25.161 58.8268 22.0378 64.0836 11.5649" stroke="#16FF00" stroke-width="2.83986"/>
<path d="M53.4653 13.1628L64.0767 9.92951L67.2674 20.5537" stroke="#16FF00" stroke-width="2.83986"/>
<rect x="37.4421" y="32.8838" width="7.39535" height="11.093" fill="#16FF00"/>
<rect x="47.3026" y="29.186" width="7.39535" height="14.7907" fill="#16FF00"/>
<rect x="57.163" y="26.7209" width="7.39535" height="17.2558" fill="#16FF00"/>
<path d="M29.5468 25.1362C29.5468 27.6488 28.5498 30.7234 26.923 33.1673C25.2863 35.626 23.1068 37.314 20.8026 37.314C18.4984 37.314 16.3189 35.626 14.6822 33.1673C13.0554 30.7234 12.0584 27.6488 12.0584 25.1362C12.0584 20.1477 15.9865 16.1279 20.8026 16.1279C25.6187 16.1279 29.5468 20.1477 29.5468 25.1362Z" stroke="black"/>
<path d="M19.8003 47.4235L20.1863 47.8922L20.5723 47.4235L26.4967 40.2295C26.8528 39.7971 27.3836 39.5466 27.9438 39.5466C32.9134 39.5466 36.9421 43.5753 36.9421 48.545V58.2395C36.9421 58.9357 36.3777 59.5001 35.6815 59.5001H4.69108C3.99487 59.5001 3.43048 58.9357 3.43048 58.2395V48.545C3.43048 43.5753 7.45917 39.5466 12.4288 39.5466C12.989 39.5466 13.5198 39.7971 13.8759 40.2295L19.8003 47.4235Z" stroke="black"/>
</svg>
