<svg width="72" height="70" viewBox="0 0 72 70" fill="none" xmlns="http://www.w3.org/2000/svg">
<path d="M63.8139 34.6492L71.1333 60.0001H0.866638L11.1139 31.6667H58.6903" stroke="black"/>
<path fill-rule="evenodd" clip-rule="evenodd" d="M36.5666 38.4667C36.5666 38.4667 48.4666 29.9161 48.4666 21.201C48.4666 14.4626 43.1388 9 36.5666 9C29.9945 9 24.6666 14.4626 24.6666 21.201C24.6666 29.9161 36.5666 38.4667 36.5666 38.4667ZM36.5666 26.4301C39.3833 26.4301 41.6666 24.089 41.6666 21.201C41.6666 18.3131 39.3833 15.972 36.5666 15.972C33.75 15.972 31.4666 18.3131 31.4666 21.201C31.4666 24.089 33.75 26.4301 36.5666 26.4301Z" fill="url(#paint0_linear_717_12511)"/>
<path d="M17.3124 52.5665C17.3082 52.5697 17.3041 52.5729 17.3 52.576C17.2959 52.5729 17.2917 52.5697 17.2876 52.5665C17.091 52.4159 16.8088 52.1938 16.4695 51.9103C15.7902 51.3427 14.8859 50.532 13.9833 49.5587C12.1526 47.5847 10.4333 45.0522 10.4333 42.575C10.4333 38.6954 13.5166 35.5667 17.3 35.5667C21.0834 35.5667 24.1666 38.6954 24.1666 42.575C24.1666 45.0522 22.4473 47.5847 20.6167 49.5587C19.714 50.532 18.8097 51.3427 18.1304 51.9103C17.7911 52.1938 17.5089 52.4159 17.3124 52.5665Z" stroke="black"/>
<path d="M44.5124 57.1C44.5082 57.1032 44.5041 57.1064 44.5 57.1095C44.4959 57.1064 44.4917 57.1032 44.4876 57.1C44.291 56.9494 44.0088 56.7273 43.6695 56.4438C42.9902 55.8761 42.0859 55.0654 41.1832 54.0921C39.3526 52.1181 37.6333 49.5856 37.6333 47.1084C37.6333 43.2288 40.7166 40.1001 44.5 40.1001C48.2834 40.1001 51.3666 43.2288 51.3666 47.1084C51.3666 49.5856 49.6473 52.1181 47.8167 54.0921C46.914 55.0654 46.0097 55.8761 45.3304 56.4438C44.9911 56.7273 44.7089 56.9494 44.5124 57.1Z" stroke="black"/>
<path d="M63.0946 36.2832C62.9142 36.4466 62.7574 36.5824 62.6333 36.6873C62.5092 36.5824 62.3524 36.4466 62.172 36.2832C61.705 35.8605 61.0833 35.2567 60.4631 34.5322C59.2023 33.0594 58.0333 31.1861 58.0333 29.3646C58.0333 26.483 60.1383 24.2334 62.6333 24.2334C65.1283 24.2334 67.2333 26.483 67.2333 29.3646C67.2333 31.1861 66.0643 33.0594 64.8035 34.5322C64.1833 35.2567 63.5616 35.8605 63.0946 36.2832Z" stroke="black"/>
<path d="M6.53331 45.2666H11.0666" stroke="black"/>
<path d="M23.5333 46.3999V59.9999" stroke="black"/>
<path d="M39.4 50.9333H34.8666V60" stroke="black"/>
<path d="M49.6 50.9333H67.7333" stroke="black"/>
<path d="M66.6 41.8667H52.2444L50.7333 32.8" stroke="black"/>
<circle cx="17.3" cy="42.4334" r="2.33333" stroke="black"/>
<circle cx="44.5" cy="46.9666" r="2.33333" stroke="black"/>
<circle cx="62.0666" cy="29.4" r="1.76667" stroke="black"/>
<defs>
<linearGradient id="paint0_linear_717_12511" x1="24.6666" y1="23.7333" x2="48.4446" y2="23.7333" gradientUnits="userSpaceOnUse">
<stop stop-color="#16FF00"/>
<stop offset="1" stop-color="#4DFFC9"/>
<stop offset="1" stop-color="#4DFFC9"/>
</linearGradient>
</defs>
</svg>
