<svg width="70" height="70" viewBox="0 0 70 70" fill="none" xmlns="http://www.w3.org/2000/svg">
<mask id="path-1-inside-1_717_12547" fill="white">
<path d="M57.063 43.6175C55.7345 48.5754 53.045 53.0625 49.2988 56.5713C45.5526 60.08 40.8991 62.4702 35.865 63.4716C30.8308 64.4729 25.6169 64.0454 20.8131 62.2374C16.0093 60.4294 11.8074 57.313 8.68278 53.2409C5.55815 49.1688 3.63552 44.3035 3.13242 39.1955C2.62932 34.0874 3.56583 28.9405 5.836 24.3371C8.10617 19.7336 11.6194 15.8574 15.9781 13.1469C20.3369 10.4365 25.3672 9 30.5 9V36.5L57.063 43.6175Z"/>
</mask>
<path d="M57.063 43.6175C55.7345 48.5754 53.045 53.0625 49.2988 56.5713C45.5526 60.08 40.8991 62.4702 35.865 63.4716C30.8308 64.4729 25.6169 64.0454 20.8131 62.2374C16.0093 60.4294 11.8074 57.313 8.68278 53.2409C5.55815 49.1688 3.63552 44.3035 3.13242 39.1955C2.62932 34.0874 3.56583 28.9405 5.836 24.3371C8.10617 19.7336 11.6194 15.8574 15.9781 13.1469C20.3369 10.4365 25.3672 9 30.5 9V36.5L57.063 43.6175Z" stroke="black" stroke-width="2" mask="url(#path-1-inside-1_717_12547)"/>
<path d="M32.5 7C36.8646 7 41.171 8.00247 45.0869 9.93009C49.0028 11.8577 52.4237 14.659 55.0856 18.1179C57.7476 21.5768 59.5796 25.6008 60.4403 29.8798C61.3011 34.1587 61.1675 38.5781 60.0499 42.7973L32.5 35.5L32.5 7Z" fill="url(#paint0_linear_717_12547)"/>
<path d="M36 26.4382H37.0242C37.064 26.6146 37.1408 26.7711 37.2546 26.9076C37.5107 27.2206 37.8748 27.377 38.3471 27.377C38.7397 27.377 39.0498 27.2803 39.2774 27.0868C39.5107 26.8877 39.6274 26.643 39.6274 26.3528C39.6274 26.0228 39.5221 25.7639 39.3116 25.5762C39.1067 25.3827 38.8137 25.286 38.4325 25.286H36.9815V24.4325L38.7739 23.1522V23.1095H36.2987V22.1707H40.2248V23.101L38.6885 24.2191L38.2618 24.3898V24.4325L38.3983 24.4154C38.5861 24.3983 38.6971 24.3898 38.7312 24.3898C39.2661 24.3898 39.7127 24.5747 40.0712 24.9446C40.4297 25.3144 40.6089 25.7838 40.6089 26.3528C40.6089 26.8991 40.3984 27.3628 39.9773 27.744C39.5562 28.1253 39.0128 28.3159 38.3471 28.3159C37.4652 28.3159 36.8137 28.0029 36.3926 27.377C36.2105 27.1096 36.0797 26.7967 36 26.4382Z" fill="black"/>
<path d="M42.1065 27.4282C41.566 26.8365 41.2957 26.0797 41.2957 25.1579C41.2957 24.2362 41.566 23.4794 42.1065 22.8876C42.6471 22.2959 43.3014 22 44.0696 22C44.8377 22 45.492 22.2959 46.0326 22.8876C46.5731 23.4794 46.8434 24.2362 46.8434 25.1579C46.8434 26.0797 46.5731 26.8365 46.0326 27.4282C45.492 28.02 44.8377 28.3159 44.0696 28.3159C43.3014 28.3159 42.6471 28.02 42.1065 27.4282ZM42.8064 23.5192C42.482 23.9061 42.3199 24.4524 42.3199 25.1579C42.3199 25.8635 42.482 26.4097 42.8064 26.7967C43.1364 27.1836 43.5575 27.377 44.0696 27.377C44.5816 27.377 44.9999 27.1836 45.3242 26.7967C45.6542 26.4097 45.8192 25.8635 45.8192 25.1579C45.8192 24.4524 45.6542 23.9061 45.3242 23.5192C44.9999 23.1323 44.5816 22.9388 44.0696 22.9388C43.5575 22.9388 43.1364 23.1323 42.8064 23.5192Z" fill="black"/>
<path d="M47.9806 24.4922C47.7074 24.2134 47.5709 23.8805 47.5709 23.4936C47.5709 23.1067 47.7074 22.7767 47.9806 22.5036C48.2594 22.2248 48.5922 22.0853 48.9792 22.0853C49.3661 22.0853 49.6961 22.2248 49.9692 22.5036C50.248 22.7767 50.3874 23.1067 50.3874 23.4936C50.3874 23.8805 50.248 24.2134 49.9692 24.4922C49.6961 24.7653 49.3661 24.9019 48.9792 24.9019C48.5922 24.9019 48.2594 24.7653 47.9806 24.4922ZM48.2964 28.1452L51.8811 22.1707H52.7345L49.1499 28.1452H48.2964ZM48.4927 22.973C48.3618 23.1039 48.2964 23.2774 48.2964 23.4936C48.2964 23.7098 48.3618 23.8862 48.4927 24.0228C48.6235 24.1537 48.7857 24.2191 48.9792 24.2191C49.1726 24.2191 49.3348 24.1537 49.4657 24.0228C49.5965 23.8862 49.662 23.7098 49.662 23.4936C49.662 23.2774 49.5965 23.1039 49.4657 22.973C49.3348 22.8364 49.1726 22.7681 48.9792 22.7681C48.7857 22.7681 48.6235 22.8364 48.4927 22.973ZM51.0532 27.8209C50.78 27.542 50.6435 27.2092 50.6435 26.8223C50.6435 26.4353 50.78 26.1053 51.0532 25.8322C51.332 25.5534 51.6648 25.414 52.0518 25.414C52.4387 25.414 52.7687 25.5534 53.0418 25.8322C53.3206 26.1053 53.46 26.4353 53.46 26.8223C53.46 27.2092 53.3206 27.542 53.0418 27.8209C52.7687 28.094 52.4387 28.2305 52.0518 28.2305C51.6648 28.2305 51.332 28.094 51.0532 27.8209ZM51.5653 26.3016C51.4344 26.4325 51.369 26.606 51.369 26.8223C51.369 27.0385 51.4344 27.2149 51.5653 27.3514C51.6961 27.4823 51.8583 27.5477 52.0518 27.5477C52.2452 27.5477 52.4074 27.4823 52.5382 27.3514C52.6691 27.2149 52.7345 27.0385 52.7345 26.8223C52.7345 26.606 52.6691 26.4325 52.5382 26.3016C52.4074 26.1651 52.2452 26.0968 52.0518 26.0968C51.8583 26.0968 51.6961 26.1651 51.5653 26.3016Z" fill="black"/>
<defs>
<linearGradient id="paint0_linear_717_12547" x1="61" y1="35.5" x2="4.05285" y2="35.5" gradientUnits="userSpaceOnUse">
<stop stop-color="#16FF00"/>
<stop offset="1" stop-color="#4DFFC9"/>
<stop offset="1" stop-color="#4DFFC9"/>
</linearGradient>
</defs>
</svg>
