<svg width="70" height="70" viewBox="0 0 70 70" fill="none" xmlns="http://www.w3.org/2000/svg">
<path d="M20.1333 8.55634C20.8255 7.99731 21.6883 7.69238 22.578 7.69238H41.5161C43.6649 7.69238 45.4068 9.4343 45.4068 11.5831V59.8806C45.4068 62.0293 43.6649 63.7712 41.5161 63.7712H6.39068C4.24191 63.7712 2.5 62.0293 2.5 59.8806V24.6574C2.5 23.4819 3.03151 22.3693 3.94602 21.6307L20.1333 8.55634Z" stroke="#111111"/>
<path d="M10.7813 32.8047H37.1254" stroke="#111111"/>
<path d="M10.7813 38.6589H37.1254" stroke="#111111"/>
<path d="M10.7813 44.5132H25.4169" stroke="#111111"/>
<path d="M2.73175 24.0234H15.9038C19.137 24.0234 21.758 21.4024 21.758 18.1691V8.65601" stroke="#111111"/>
<path d="M31.9661 55.8019L40.2452 53.7322L34.0359 47.5228L31.9661 55.8019Z" fill="url(#paint0_linear_717_12443)"/>
<path d="M58.3558 36.6564L42.8324 52.1798L35.5882 44.9356L51.1116 29.4122L58.3558 36.6564Z" fill="url(#paint1_linear_717_12443)"/>
<path d="M63.0129 31.9994L60.4256 34.5866L53.1814 27.3424L55.7686 24.7551L63.0129 31.9994Z" fill="url(#paint2_linear_717_12443)"/>
<defs>
<linearGradient id="paint0_linear_717_12443" x1="49.3005" y1="45.7117" x2="42.063" y2="38.4742" gradientUnits="userSpaceOnUse">
<stop stop-color="#16FF00"/>
<stop offset="1" stop-color="#4DFFC9"/>
<stop offset="1" stop-color="#4DFFC9"/>
</linearGradient>
<linearGradient id="paint1_linear_717_12443" x1="49.3005" y1="45.7117" x2="42.063" y2="38.4742" gradientUnits="userSpaceOnUse">
<stop stop-color="#16FF00"/>
<stop offset="1" stop-color="#4DFFC9"/>
<stop offset="1" stop-color="#4DFFC9"/>
</linearGradient>
<linearGradient id="paint2_linear_717_12443" x1="49.3005" y1="45.7117" x2="42.063" y2="38.4742" gradientUnits="userSpaceOnUse">
<stop stop-color="#16FF00"/>
<stop offset="1" stop-color="#4DFFC9"/>
<stop offset="1" stop-color="#4DFFC9"/>
</linearGradient>
</defs>
</svg>
