<svg width="70" height="70" viewBox="0 0 70 70" fill="none" xmlns="http://www.w3.org/2000/svg">
<path d="M46.0733 62.7094H6.68325C4.64914 62.7094 3.00017 61.0605 3.00017 59.0264V57.7205C3.00017 55.6864 4.64914 54.0375 6.68325 54.0375H10.4415C11.2402 54.0375 12.0173 53.7778 12.6556 53.2977L18.1218 49.1857C18.7601 48.7055 19.5372 48.4459 20.3359 48.4459H36.0148C37.6231 48.4459 38.9269 49.7497 38.9269 51.358C38.9269 52.8725 37.766 54.1342 36.2567 54.26L24.0607 55.2763H43.5956C44.5724 55.2763 45.5092 54.8883 46.1999 54.1976L56.2709 44.1266C57.6393 42.7582 59.8579 42.7582 61.2263 44.1266C62.5947 45.495 62.5947 47.7136 61.2263 49.082L48.6776 61.6307C47.9869 62.3214 47.0501 62.7094 46.0733 62.7094Z" stroke="black"/>
<circle cx="38.843" cy="24.8115" r="13.8115" fill="url(#paint0_linear_717_12555)"/>
<path d="M36.1443 30.3148C36.1443 30.6655 36.4286 30.9498 36.7793 30.9498C37.13 30.9498 37.4143 30.6655 37.4143 30.3148V28.7833H40.5022C40.901 28.7833 41.2244 28.4599 41.2244 28.0611C41.2244 27.6622 40.901 27.3389 40.5022 27.3389H37.4143V25.8946H40.2719C42.0226 25.8946 43.4469 24.2747 43.4469 22.2837C43.4469 20.2927 42.0226 18.6729 40.2719 18.6729H36.7793C36.6109 18.6729 36.4493 18.7489 36.3303 18.8844C36.2112 19.0198 36.1443 19.2035 36.1443 19.395V24.4502H34.9614C34.5626 24.4502 34.2392 24.7736 34.2392 25.1724C34.2392 25.5712 34.5626 25.8946 34.9614 25.8946H36.1443V27.3389H34.9614C34.5626 27.3389 34.2392 27.6622 34.2392 28.0611C34.2392 28.4599 34.5626 28.7833 34.9614 28.7833H36.1443V30.3148ZM37.4143 20.1172H40.2719C41.3222 20.1172 42.1769 21.0892 42.1769 22.2837C42.1769 23.4782 41.3222 24.4502 40.2719 24.4502H37.4143V20.1172Z" fill="black"/>
<defs>
<linearGradient id="paint0_linear_717_12555" x1="25.0315" y1="24.8115" x2="52.6289" y2="24.8115" gradientUnits="userSpaceOnUse">
<stop stop-color="#16FF00"/>
<stop offset="1" stop-color="#4DFFC9"/>
<stop offset="1" stop-color="#4DFFC9"/>
</linearGradient>
</defs>
</svg>
