<svg width="70" height="70" viewBox="0 0 70 70" fill="none" xmlns="http://www.w3.org/2000/svg">
<path d="M18.5462 12.603C15.9342 14.1108 14.2768 17.2288 14.2593 20.5714C14.2618 21.1298 14.309 21.6856 14.3853 22.2368C14.8105 25.3107 16.2416 28.4862 18.402 30.4214C19.441 31.3522 20.7003 32.0215 22.0429 32.0084C23.3949 31.9954 24.6323 31.3635 25.684 30.4214C26.7723 29.4464 27.653 28.1473 28.3131 26.7628C28.9811 25.3617 29.4932 23.8206 29.7007 22.2367C29.912 20.6236 29.8531 18.9665 29.3279 17.4328C28.8072 15.9124 27.9753 14.5661 26.8459 13.5598C24.4885 11.4595 21.2241 11.057 18.5462 12.603Z" stroke="black"/>
<path d="M10.8344 34.2989C8.1711 35.5861 6.49911 38.0915 6.48149 40.781L6.48162 46.0484C6.48162 46.3765 6.78988 46.6503 7.15932 46.6503H8.57029H18.5357H30.8583H36.888C37.2575 46.6503 37.5657 46.3765 37.5657 46.0484V43.1859C37.5657 42.1817 37.6444 41.1452 37.5324 40.1436C37.235 37.4857 35.3806 35.1067 32.5994 34.0371C31.4024 33.5768 30.1644 33.416 28.8682 33.416H27.5403C27.1876 33.416 26.9989 33.6062 26.8139 33.8304C25.0145 36.012 23.7519 37.419 21.9526 39.6006C20.6633 38.2407 18.8477 35.805 17.165 33.7479C16.9004 33.4244 16.5958 33.4161 16.1995 33.4161H14.8428C13.4493 33.4161 12.0616 33.7058 10.8344 34.2989Z" stroke="black"/>
<path d="M56.4686 59.0868V32.5093H66.1363V59.0868H56.4686Z" stroke="black"/>
<path d="M39.4832 56.6066V32.5093H49.1509V56.6066H39.4832Z" stroke="black"/>
<path d="M22 60.0299V49.2321C26.5064 49.2264 30.8262 47.4084 34.0107 44.1773C37.1952 40.9463 38.9839 36.5665 38.9839 32H49.6516C49.646 39.4306 46.7312 46.5554 41.547 51.8105C36.3628 57.0657 29.3328 60.0217 22 60.0299Z" fill="url(#paint0_linear_717_12457)"/>
<path d="M38.9832 60.0299V49.2321C43.4901 49.2272 47.8107 47.4095 50.9959 44.1784C54.181 40.9473 55.9701 36.567 55.9701 32H66.6378C66.6314 39.4309 63.7159 46.5557 58.5312 51.8107C53.3466 57.0658 46.3162 60.0217 38.9832 60.0299Z" fill="url(#paint1_linear_717_12457)"/>
<defs>
<linearGradient id="paint0_linear_717_12457" x1="25.3342" y1="57.1773" x2="49.362" y2="32.9801" gradientUnits="userSpaceOnUse">
<stop stop-color="#00EF12"/>
<stop offset="1" stop-color="#00FFE9"/>
</linearGradient>
<linearGradient id="paint1_linear_717_12457" x1="1131.62" y1="3109.12" x2="3320.31" y2="905.471" gradientUnits="userSpaceOnUse">
<stop stop-color="#00EF12"/>
<stop offset="1" stop-color="#00FFE9"/>
</linearGradient>
</defs>
</svg>
