<svg width="14" height="15" viewBox="0 0 14 15" fill="none" xmlns="http://www.w3.org/2000/svg">
<g clip-path="url(#clip0_3733_617)">
<path fill-rule="evenodd" clip-rule="evenodd" d="M6.3 0.5C2.82061 0.5 0 3.32061 0 6.8C0 10.2794 2.82061 13.1 6.3 13.1C7.77167 13.1 9.12547 12.5954 10.1978 11.7498L12.9356 14.5008L14.0008 13.4285L11.2502 10.6973C12.0956 9.62505 12.6 8.27143 12.6 6.8C12.6 3.32061 9.77939 0.5 6.3 0.5ZM1.4 6.8C1.4 4.09381 3.59381 1.9 6.3 1.9C9.0062 1.9 11.2 4.09381 11.2 6.8C11.2 9.5062 9.0062 11.7 6.3 11.7C3.59381 11.7 1.4 9.5062 1.4 6.8Z" fill="#909197"/>
</g>
<defs>
<clipPath id="clip0_3733_617">
<rect width="14" height="14" fill="white" transform="translate(0 0.5)"/>
</clipPath>
</defs>
</svg>
