<svg width="70" height="70" viewBox="0 0 70 70" fill="none" xmlns="http://www.w3.org/2000/svg">
<path d="M20.7408 33.6873C20.7408 29.7722 24.0124 26.8708 27.8203 26.8708H42.7301C46.6989 26.8708 49.7559 29.7185 49.7559 33.6873" stroke="black"/>
<path d="M42.8202 15.8763C42.8202 20.0517 39.3971 23.4748 35.2217 23.4748C31.0528 23.4748 27.6752 20.0575 27.6232 15.8733C27.6249 11.6993 31.0474 8.27783 35.2217 8.27783C39.3971 8.27783 42.8202 11.701 42.8202 15.8763Z" stroke="black"/>
<path d="M15.1049 32.4756H54.8952C55.7641 32.4756 56.4512 33.2114 56.3917 34.0782L54.8072 57.1855H15.1929L13.6084 34.0782C13.5489 33.2114 14.236 32.4756 15.1049 32.4756Z" stroke="black"/>
<path d="M13.463 56.9612H56.5371V59.3583C56.5371 60.1867 55.8655 60.8583 55.0371 60.8583H14.963C14.1346 60.8583 13.463 60.1867 13.463 59.3583V56.9612Z" stroke="black"/>
<ellipse cx="35.0001" cy="45.3705" rx="5.18519" ry="5.18518" fill="url(#paint0_linear_717_12424)"/>
<defs>
<linearGradient id="paint0_linear_717_12424" x1="29.8149" y1="45.3705" x2="40.1756" y2="45.3705" gradientUnits="userSpaceOnUse">
<stop stop-color="#16FF00"/>
<stop offset="1" stop-color="#4DFFC9"/>
<stop offset="1" stop-color="#4DFFC9"/>
</linearGradient>
</defs>
</svg>
