<svg width="54" height="54" viewBox="0 0 54 54" fill="none" xmlns="http://www.w3.org/2000/svg">
<path d="M32.7759 21C32.7759 22.5403 32.1444 24.4436 31.106 25.9602C30.0593 27.4888 28.6908 28.5 27.2759 28.5C25.8609 28.5 24.4925 27.4888 23.4458 25.9602C22.4074 24.4436 21.7759 22.5403 21.7759 21C21.7759 17.9624 24.2383 15.5 27.2759 15.5C30.3134 15.5 32.7759 17.9624 32.7759 21Z" stroke="black"/>
<path d="M26.8942 35.323L27.2759 35.7741L27.6576 35.323L31.439 30.8541C31.629 30.6295 31.9082 30.5 32.2023 30.5H32.2759C35.3134 30.5 37.7759 32.9624 37.7759 36V42C37.7759 42.2761 37.552 42.5 37.2759 42.5H17.2759C16.9997 42.5 16.7759 42.2761 16.7759 42V36C16.7759 32.9624 19.2383 30.5 22.2759 30.5H22.3494C22.6436 30.5 22.9228 30.6295 23.1128 30.8541L26.8942 35.323Z" stroke="black"/>
<path d="M46.2931 22.7586C46.2931 23.9562 45.8005 25.4456 44.9868 26.6341C44.1648 27.8347 43.1066 28.6034 42.0345 28.6034C40.9624 28.6034 39.9042 27.8347 39.0822 26.6341C38.2685 25.4456 37.7759 23.9562 37.7759 22.7586C37.7759 20.4066 39.6825 18.5 42.0345 18.5C44.3865 18.5 46.2931 20.4066 46.2931 22.7586Z" stroke="black"/>
<path d="M41.0344 33.862L44.303 30.3211C44.5528 30.0504 44.9044 29.8965 45.2727 29.8965V29.8965C48.1882 29.8965 50.5517 32.2599 50.5517 35.1754V38.9999C50.5517 39.5522 50.1039 39.9999 49.5517 39.9999H41.0344" stroke="black"/>
<path d="M8.25864 22.7586C8.25864 23.9562 8.75122 25.4456 9.56496 26.6341C10.387 27.8347 11.4451 28.6034 12.5173 28.6034C13.5894 28.6034 14.6475 27.8347 15.4696 26.6341C16.2833 25.4456 16.7759 23.9562 16.7759 22.7586C16.7759 20.4066 14.8692 18.5 12.5173 18.5C10.1653 18.5 8.25864 20.4066 8.25864 22.7586Z" stroke="black"/>
<path d="M13.5173 33.862L10.2488 30.3211C9.99895 30.0504 9.64737 29.8965 9.27903 29.8965V29.8965C6.36356 29.8965 4.00009 32.2599 4.00009 35.1754V38.9999C4.00009 39.5522 4.44781 39.9999 5.00009 39.9999H13.5173" stroke="black"/>
<circle cx="35.5001" cy="13.5" r="7.5" fill="url(#paint0_linear_3854_642)"/>
<path d="M32 12.7978L34.8765 15.6742L39.5507 11" stroke="black" stroke-width="2"/>
<defs>
<linearGradient id="paint0_linear_3854_642" x1="28.0001" y1="13.5" x2="42.9862" y2="13.5" gradientUnits="userSpaceOnUse">
<stop stop-color="#16FF00"/>
<stop offset="1" stop-color="#4DFFC9"/>
<stop offset="1" stop-color="#4DFFC9"/>
</linearGradient>
</defs>
</svg>
