<svg width="40" height="40" viewBox="0 0 40 40" fill="none" xmlns="http://www.w3.org/2000/svg">
<g clip-path="url(#clip0_3929_155)">
<g filter="url(#filter0_f_3929_155)">
<circle cx="34.5" cy="44.5" r="41.5" fill="#2EF567"/>
</g>
<path d="M21.4072 27.3492C13.5491 27.3492 9.06858 21.9725 8.88477 13.0115H12.8368C12.9632 19.5829 15.8583 22.3631 18.156 22.9376V13.0115H21.8668V18.6753C24.13 18.4341 26.5196 15.8492 27.3238 13H31.0231C30.7215 14.4749 30.119 15.8717 29.2532 17.1032C28.3874 18.3346 27.2769 19.3744 25.9912 20.1573C27.426 20.8715 28.6931 21.8817 29.709 23.1214C30.7249 24.361 31.4665 25.802 31.8848 27.3492H27.8063C26.9332 24.6264 24.7504 22.5125 21.8668 22.2253V27.3492H21.4187H21.4072Z" fill="black"/>
</g>
<defs>
<filter id="filter0_f_3929_155" x="-57" y="-47" width="183" height="183" filterUnits="userSpaceOnUse" color-interpolation-filters="sRGB">
<feFlood flood-opacity="0" result="BackgroundImageFix"/>
<feBlend mode="normal" in="SourceGraphic" in2="BackgroundImageFix" result="shape"/>
<feGaussianBlur stdDeviation="25" result="effect1_foregroundBlur_3929_155"/>
</filter>
<clipPath id="clip0_3929_155">
<rect width="40" height="40" rx="20" fill="white"/>
</clipPath>
</defs>
</svg>
